PathFileType	4	(X/Y/Z)	Patient4_TMGait_0pt3_02_left_20.trc.trc
DataRate	CameraRate	NumFrames	NumMarkers	Units	OrigDataRate	OrigDataStartFrame	OrigNumFrames
50.000000000000	50.000000000000	4	33	mm	50.000000000000	71	       141
Frame#	Time	Sacral			L.Shoulder			Chest			R.Shoulder			Neck			R.ASIS			L.ASIS			R.Thigh.Superior			R.Thigh.Lateral			R.Thigh.Inferior			R.Patella			L.Thigh.Superior			L.Thigh.Lateral			L.Thigh.Inferior			L.Patella			L.Shank.Superior			L.Shank.Lateral			L.Shank.Inferior			R.Shank.Superior			R.Shank.Lateral			R.Shank.Inferior			R.Heel			R.Midfoot.Superior			R.Midfoot.Lateral			R.Toe			L.Heel			L.Midfoot.Lateral			L.Midfoot.Superior			L.Toe			L.Elbow			L.Wrist			R.Elbow			R.Wrist			
		X1	Y1	Z1	X2	Y2	Z2	X3	Y3	Z3	X4	Y4	Z4	X5	Y5	Z5	X6	Y6	Z6	X7	Y7	Z7	X8	Y8	Z8	X9	Y9	Z9	X10	Y10	Z10	X11	Y11	Z11	X12	Y12	Z12	X13	Y13	Z13	X14	Y14	Z14	X15	Y15	Z15	X16	Y16	Z16	X17	Y17	Z17	X18	Y18	Z18	X19	Y19	Z19	X20	Y20	Z20	X21	Y21	Z21	X22	Y22	Z22	X23	Y23	Z23	X24	Y24	Z24	X25	Y25	Z25	X26	Y26	Z26	X27	Y27	Z27	X28	Y28	Z28	X29	Y29	Z29	X30	Y30	Z30	X31	Y31	Z31	X32	Y32	Z32	X33	Y33	Z33	

71	40.480000000000	732.404817892561	1012.593729122997	397.281742400372	967.462352188744	1433.302003761933	246.066873511853	1031.503868621638	1359.772331198152	422.914729857474	921.262289795608	1438.511102014795	578.411739893079	924.520352810008	1495.811045830288	400.036879070082	942.169079940288	945.537771102752	549.107255779059	966.324422049519	957.039942321606	274.464450460874	1012.087968697935	767.239717291586	522.482982862078	959.521578034193	648.860196412547	591.682596010190	1045.655822278794	605.133135051373	513.062848241338	1072.643254948236	518.806497173793	532.631830197745	980.591776969171	732.764794726669	311.950173953726	881.217788792299	624.708412915987	248.540684760184	947.654979592737	541.223267285978	321.413465027067	937.451749659378	473.093821700102	332.509757396032	902.287008414848	404.625587393211	325.381152216375	802.220830636403	299.084115185280	276.349334130552	833.941836667627	186.087147999194	353.359396912283	1045.387377533974	431.274282489675	544.032988229976	977.969927588150	326.880759666036	610.164064572213	1035.643141718013	231.635809644686	560.227187051669	920.514624952734	53.052865375092	537.014364046515	1090.576349616300	117.015626872417	575.103202288940	1007.332392997084	43.300354479428	606.499782386040	1212.322980766412	71.711445840728	593.288057049652	690.338736929509	39.552596704275	398.660213968047	762.851369878735	35.723345868527	317.125564887133	848.142795598155	95.345335342161	342.869564424295	974.985710773001	39.844497710543	310.764121103092	1053.030355631233	1106.768520742115	105.523668090813	1294.693672817889	1015.131911509198	137.370523535253	751.879247353709	1131.942075226075	667.493440019264	720.451981566980	872.459054495643	678.582763505345	
72	40.500000000000	733.604278616150	1011.669992616605	398.864526305446	968.519154137241	1432.632837489470	249.061632255498	1031.903513348197	1359.211907070318	426.126885020541	921.291309281011	1438.214720003803	581.173221156261	924.890874948606	1495.121235715447	402.834732356224	942.626687070159	944.356688748923	551.465360876947	967.906600622035	956.517004472831	276.809995095991	1010.898386535688	764.501512094593	526.492159656144	955.567029354056	646.355546709647	594.652880818163	1042.390567877282	602.583530296809	516.889242852844	1068.524274484182	518.475921256049	535.072818008926	979.150946312027	731.454043583415	313.867766097372	878.117949163737	624.855100075632	249.354613315815	942.828356711510	540.292939792652	321.943756575158	931.464313997731	472.569429683634	332.821476684204	896.602442108989	404.448899106010	325.544678731251	796.219894350256	299.166065308056	276.474003552417	827.982985773719	186.011401233823	353.412917828378	1045.480121490593	430.546484343638	546.307924084234	983.078051434636	322.779612841760	612.746408659863	1044.833678953043	230.062692563602	562.119328338695	936.785831126887	47.871288627740	539.348324871003	1105.501334061094	115.997679694300	575.921892523358	1024.613711406356	39.789277826804	607.751580104293	1228.843012579790	73.735498874440	592.327197983788	684.293093324580	39.441379046626	398.690711501910	756.775452737670	35.642236641986	317.157500732621	842.067336546452	95.282986378884	342.892668135012	968.909950921615	39.830974734596	310.783943460612	1058.186391031581	1107.720765184282	108.596902472133	1303.351967885094	1027.061140615465	141.135654350205	748.195714174398	1134.435746694436	669.020375555688	713.348690881903	875.288071853083	678.668097023105	
73	40.520000000000	735.114241038521	1010.310292423416	400.944501712704	969.261358067629	1431.761104460606	252.451293905162	1032.350893889495	1358.409260816250	429.599914575250	921.531547089622	1437.445718766590	584.450193654228	925.184897043262	1494.125078331852	406.129739597517	943.635537114518	942.802191282653	553.952810255348	969.710230488360	955.792111055990	279.314975300038	1010.571990461159	761.595045764963	530.276492675679	952.690062201278	643.549144779919	597.279424434732	1040.193094130769	599.952032389476	520.216161368178	1065.172014569495	517.484828683790	537.033006819036	978.275491421039	730.024016061958	315.798222794427	875.546788134357	624.836475827829	250.394096402743	938.652002392924	539.260717692276	322.629688435152	926.194949432126	471.888078278473	333.318417294344	891.470077794411	404.084973927119	325.890437351760	790.568488317549	299.256187290480	276.717445404036	822.219431208503	185.865200340884	353.536487282249	1045.459336846771	429.189001848525	548.187530733826	986.806236483772	319.098501250481	614.678797944032	1051.448428628379	228.415786021848	563.484603281002	948.493972932319	44.421039804171	540.884295479925	1116.183335414133	114.819739403948	576.323098530496	1036.843753088318	37.489688776628	608.655261143346	1240.361727250533	74.405450466026	591.723536621661	678.241136361226	39.339309359386	398.722179565694	750.704006511923	35.568722430739	317.194244072725	836.003559538583	95.233134883043	342.924690342583	962.835395034783	39.805479014770	310.803940153169	1062.933959803972	1108.503413027767	111.905489501108	1310.970503791216	1038.294703523181	144.901423601262	746.084627425124	1135.592606767326	670.989274607391	708.151641203031	876.767107194563	679.365347362694	
74	40.540000000000	736.938305255227	1008.646984517293	403.494577430133	969.766952438295	1430.789982612517	256.248015191482	1032.880690030160	1357.462914751271	433.367431100549	921.963532595473	1436.302606075009	588.244361062746	925.431499106038	1492.921917300863	409.927687108472	945.193272176009	941.008227280861	556.587834853686	971.759191784281	954.955267197192	282.000683816945	1011.201350276388	758.741547491804	533.711308320206	951.114086904332	640.642817150705	599.490486898307	1039.250443464413	597.438401564317	522.956373212775	1062.866020893167	515.987620520982	538.467889000254	977.932357049224	728.514843375020	317.750906680581	873.447795166066	624.714365161348	251.677643027872	935.066401378287	538.170434525137	323.499011263263	921.583790198761	471.088514713515	334.027308764104	886.828585272159	403.590984113809	326.431137076082	785.220640969760	299.405017239571	277.093753926328	816.629772382250	185.692504365532	353.728640775339	1045.560718466829	427.301554204438	549.605012204299	989.342094122435	315.828091067979	615.953174430789	1055.653046223357	226.590660166557	564.255384608520	955.667974686839	42.337014292232	541.638521713144	1122.734627129630	113.361305339624	576.234390827004	1044.134788164828	36.142133282754	609.211351777302	1247.147600565264	73.707996246096	591.405600728186	672.184870398079	39.281326252343	398.747008554375	744.641104097134	35.522496987896	317.234258526943	829.961877663913	95.212161502900	342.956029097038	956.764422116860	39.764279899492	310.820670162884	1067.222734513640	1109.168043952195	115.451956487461	1317.562203718606	1048.748146664035	148.641082951413	745.397717535965	1135.532175101072	673.440506250627	704.697657182550	877.012487965412	680.764086221882	
